<svg xmlns="http://www.w3.org/2000/svg" width="43" height="32" viewBox="0 0 43 32"><path d="M0 0h42.667v32H0V0z" fill="#006"/><path d="M0 0v1.863l20.47 14.803h2.575v-1.863L2.575 0H0zm23.046 0v1.863L2.576 16.666H.002v-1.863L20.47 0h2.576z" fill="#FFF"/><path d="M9.602 0v16.667h3.84V0h-3.84zM0 5.556v5.556h23.046V5.556H0z" fill="#FFF"/><path d="M0 6.667V10h23.046V6.667H0zM10.37 0v16.667h2.306V0H10.37zM0 16.667l7.682-5.556H9.4l-7.682 5.557H0zM0 0l7.682 5.556H5.964L0 1.243V0zm13.646 5.556L21.328 0h1.718l-7.682 5.556h-1.718zm9.4 11.11l-7.682-5.555h1.718l5.964 4.314v1.242z" fill="#C00"/><path d="M19.984 26.168l-2.91.253.4 2.895-2.01-2.118-2.013 2.118.402-2.894-2.91-.252 2.512-1.49-1.616-2.434 2.73 1.034.896-2.78.895 2.78 2.73-1.034-1.616 2.433zM32.435 28.835l-.702-1.057 1.187.45.388-1.21.388 1.21 1.187-.45-.702 1.057 1.092.648-1.264.11.174 1.257-.874-.92-.874.92.174-1.257-1.264-.11zM32.435 10.03l-.702-1.058 1.187.45.388-1.21.388 1.21 1.187-.45-.702 1.057 1.092.647-1.264.11.174 1.257-.874-.92-.874.92.174-1.257-1.264-.11zM25.383 17.67l-.702-1.058 1.188.45.388-1.21.388 1.21 1.187-.45-.7 1.057 1.09.647-1.264.11.174 1.257-.875-.92-.875.92.174-1.257-1.264-.11zM38.706 15.788l-.704-1.057 1.188.45.386-1.208.39 1.208 1.185-.45-.7 1.058 1.09.648-1.264.11.174 1.257-.874-.92-.874.92.174-1.257-1.262-.11zM36.13 21.33l-.692.427.194-.79-.62-.523.81-.06.307-.753.306.754.81.06-.62.524.194.79z" fill="#FFF"/></svg>