
<svg viewBox="0 0 650 271" version="1.1" xmlns="http://www.w3.org/2000/svg" xmlns:xlink="http://www.w3.org/1999/xlink">
    <g stroke="none" stroke-width="2.5" fill="none" fill-rule="evenodd">
        <g transform="translate(-354.000000, -358.000000)">
            <g transform="translate(354.000000, 359.000000)">
                <path d="M449.072585,211.871896 C446.215476,211.871896 443.899219,214.191597 443.899219,217.052954 C443.899219,219.914311 446.215476,222.234012 449.072585,222.234012 C451.929694,222.234012 454.245951,219.914311 454.245951,217.052954 C454.245951,214.191597 451.933613,211.871896 449.072585,211.871896 L449.072585,211.871896 Z" stroke="#000000" stroke-width="2.5"></path>
                <path d="M471.937296,200.756171 C470.397044,193.50269 464.004801,188.321631 456.6014,188.321631 L397.029305,188.321631 C389.625904,188.321631 383.233662,193.506615 381.69341,200.756171 L370.88421,251.691468 C369.304765,259.129427 374.047018,266.433934 381.470014,268.015726 C382.688891,268.274779 383.915606,268.400381 385.134482,268.400381 C390.233383,268.400381 395.155919,266.182731 398.546042,262.206661 L411.350123,247.193368 L442.284501,247.193368 L455.088583,262.206661 C458.478705,266.178806 463.401242,268.400381 468.496223,268.400381 C469.7151,268.400381 470.945734,268.274779 472.16461,268.011801 C479.583688,266.433934 484.32594,259.125502 482.746496,251.691468 L471.937296,200.756171 Z" stroke="#000000" stroke-width="2.5"></path>
                <path d="M120.542256,88.049712 C120.542256,88.049712 120.542256,83.963611 120.542256,78.9264293 L120.542256,0.286286923 L484.696839,0.286286923 L484.696839,90.3586769" stroke="#000000" stroke-width="2.5"></path>
                <path d="M241.658697,227 L369.502075,227" stroke="#000000" stroke-width="2.5"></path>
                <path d="M465.248963,182.941512 C465.248963,182.941512 465.248963,180.227123 465.248963,176.855104 L465.248963,109.060851 C465.248963,104.024045 469.330732,99.9409074 474.375205,99.9409074 L569.400728,99.9409074 C574.441013,99.9409074 578.526971,104.023695 578.526971,109.057766 L578.526971,256.825259 C578.526971,261.860361 574.452844,265.942117 569.415555,265.942117 L488.427944,265.942118" stroke="#000000" stroke-width="2.5"></path>
                <ellipse stroke="#000000" stroke-width="2.5" cx="523.236515" cy="212.03679" rx="32.3651452" ry="32.4132673"></ellipse>
                <ellipse fill="#000000" cx="524.585062" cy="141.808044" rx="4.04564315" ry="4.05165841"></ellipse>
                <path d="M0,258 L250.236511,258" stroke="#000000" stroke-width="2.5"></path>
                <path d="M15.8340249,100.620405 L15.8340249,231.274221 C15.8340249,235.757056 19.4691328,239.398399 23.9472228,239.398399 L225.534105,239.398399 C230.018296,239.398399 233.647303,235.763436 233.647303,231.274221 L233.647303,103.662874 C233.647303,99.180039 230.012195,95.5386961 225.534105,95.5386961 L20.9136632,95.5386961 C18.1069013,95.5386961 15.8340249,97.8129346 15.8340249,100.620405 Z" stroke="#000000" stroke-width="2.5"></path>
                <rect stroke="#000000" stroke-width="2.5" x="588.966805" y="177.922417" width="60.033195" height="88.4870377" rx="6.08"></rect>
                <ellipse fill="#000000" cx="618.983402" cy="251.202821" rx="2.69709544" ry="2.7011056"></ellipse>
                <g transform="translate(395.057702, 208.000000)" stroke="#000000" stroke-width="2.5" stroke-linecap="square">
                    <path d="M0.769230769,9.64615385 L19.2947609,9.64615385"></path>
                    <path d="M10,19 L10,0.22746281"></path>
                </g>
            </g>
        </g>
    </g>
</svg>
